<svg width="53" height="52" viewBox="0 0 53 52" fill="none" xmlns="http://www.w3.org/2000/svg">
<path fill-rule="evenodd" clip-rule="evenodd" d="M26.5002 0C11.8665 0 0 11.8655 0 26.5034C0 38.2135 7.59312 48.1483 18.1225 51.6529C19.4469 51.8982 19.9331 51.0779 19.9331 50.3779C19.9331 49.7459 19.9085 47.6581 19.8971 45.4434C12.5247 47.0467 10.9691 42.3163 10.9691 42.3163C9.76359 39.2528 8.02669 38.4382 8.02669 38.4382C5.62232 36.7933 8.20792 36.8271 8.20792 36.8271C10.869 37.0136 12.2702 39.5583 12.2702 39.5583C14.6337 43.6102 18.4696 42.4388 19.9818 41.7615C20.2196 40.049 20.9064 38.8789 21.6643 38.2175C15.7782 37.5473 9.59068 35.2747 9.59068 25.1192C9.59068 22.2255 10.6259 19.8612 12.3211 18.0051C12.046 17.3372 11.1389 14.6419 12.5778 10.9912C12.5778 10.9912 14.8031 10.2789 19.8673 13.7079C21.9811 13.1207 24.2481 12.8262 26.5002 12.8161C28.7523 12.8262 31.0211 13.1207 33.1389 13.7079C38.1969 10.2789 40.4191 10.9912 40.4191 10.9912C41.8616 14.6419 40.954 17.3372 40.6789 18.0051C42.3781 19.8612 43.4062 22.2255 43.4062 25.1192C43.4062 35.2988 37.2069 37.5403 31.3059 38.1964C32.2564 39.0189 33.1033 40.6318 33.1033 43.1046C33.1033 46.6504 33.0726 49.5045 33.0726 50.3779C33.0726 51.0832 33.5496 51.9096 34.8929 51.6494C45.4165 48.1409 53 38.2096 53 26.5034C53 11.8655 41.1353 0 26.5002 0Z" fill="#695DF3"/>
<path fill-rule="evenodd" clip-rule="evenodd" d="M10.0371 38.0533C9.97874 38.1854 9.77161 38.2245 9.58291 38.1341C9.3907 38.0476 9.28275 37.8681 9.34506 37.736C9.40211 37.6004 9.60968 37.5631 9.80145 37.6531C9.9941 37.74 10.1038 37.9212 10.0371 38.0533Z" fill="#695DF3"/>
<path fill-rule="evenodd" clip-rule="evenodd" d="M11.1103 39.2506C10.9839 39.3678 10.7369 39.3134 10.5692 39.1282C10.3959 38.9434 10.3634 38.6963 10.4915 38.5774C10.6219 38.4602 10.8615 38.5151 11.0353 38.6998C11.2086 38.8868 11.2424 39.1321 11.1103 39.2506Z" fill="#695DF3"/>
<path fill-rule="evenodd" clip-rule="evenodd" d="M12.1555 40.7771C11.9931 40.8899 11.7276 40.7841 11.5635 40.5484C11.4011 40.3127 11.4011 40.0301 11.567 39.9168C11.7316 39.8036 11.9931 39.9054 12.1594 40.1394C12.3213 40.3786 12.3213 40.6616 12.1555 40.7771Z" fill="#695DF3"/>
<path fill-rule="evenodd" clip-rule="evenodd" d="M13.5867 42.2518C13.4415 42.412 13.1321 42.369 12.9056 42.1504C12.6739 41.9366 12.6094 41.6334 12.7551 41.4732C12.9021 41.3125 13.2133 41.3577 13.4415 41.5746C13.6714 41.7879 13.7416 42.0933 13.5867 42.2518Z" fill="#695DF3"/>
<path fill-rule="evenodd" clip-rule="evenodd" d="M15.5616 43.1081C15.4976 43.3157 15.1996 43.41 14.8994 43.3218C14.5997 43.2309 14.4035 42.9878 14.4641 42.778C14.5264 42.5691 14.8257 42.4708 15.1281 42.5651C15.4273 42.6556 15.6239 42.8969 15.5616 43.1081Z" fill="#695DF3"/>
<path fill-rule="evenodd" clip-rule="evenodd" d="M17.7301 43.2669C17.7375 43.4855 17.483 43.6668 17.1679 43.6703C16.8511 43.6778 16.5948 43.5009 16.5913 43.2858C16.5913 43.0651 16.8401 42.8856 17.157 42.8803C17.472 42.8741 17.7301 43.0497 17.7301 43.2669Z" fill="#695DF3"/>
<path fill-rule="evenodd" clip-rule="evenodd" d="M19.748 42.9233C19.7858 43.1366 19.5668 43.3556 19.2539 43.4135C18.9463 43.4701 18.6615 43.3385 18.6224 43.1269C18.5842 42.9084 18.8072 42.6894 19.1144 42.6327C19.4277 42.5783 19.7081 42.7065 19.748 42.9233Z" fill="#695DF3"/>
</svg>
